<svg width="32" height="32" viewBox="0 0 32 32" fill="none" xmlns="http://www.w3.org/2000/svg">
<path d="M0 16C0 22.8307 4.28133 28.6627 10.3067 30.9573C10.16 29.708 10.004 27.648 10.34 26.2027C10.6293 24.96 12.208 18.2853 12.208 18.2853C12.208 18.2853 11.732 17.332 11.732 15.92C11.732 13.7067 13.0147 12.0533 14.6133 12.0533C15.9733 12.0533 16.6293 13.0733 16.6293 14.296C16.6293 15.6627 15.7587 17.7053 15.3093 19.6C14.9347 21.1853 16.1053 22.4787 17.668 22.4787C20.4987 22.4787 22.676 19.4933 22.676 15.184C22.676 11.3693 19.9347 8.704 16.0213 8.704C11.4907 8.704 8.83067 12.1027 8.83067 15.616C8.83067 16.9853 9.35733 18.452 10.016 19.2507C10.0722 19.311 10.1118 19.3847 10.1312 19.4648C10.1506 19.5449 10.149 19.6287 10.1267 19.708C10.0053 20.212 9.736 21.2933 9.684 21.5147C9.61333 21.8053 9.45333 21.868 9.15067 21.7267C7.16133 20.8013 5.91867 17.8933 5.91867 15.5573C5.91867 10.532 9.568 5.91867 16.4413 5.91867C21.9667 5.91867 26.2613 9.856 26.2613 15.1173C26.2613 20.6067 22.8013 25.0253 17.996 25.0253C16.3813 25.0253 14.8653 24.1853 14.3453 23.1947C14.3453 23.1947 13.5467 26.2373 13.3533 26.9813C12.9773 28.4267 11.9347 30.256 11.288 31.2947C12.7787 31.7533 14.36 32 16 32C24.836 32 32 24.836 32 16C32 7.164 24.836 0 16 0C7.164 0 0 7.164 0 16Z" fill="#484848"/>
</svg>
