<svg width="32" height="32" viewBox="0 0 32 32" fill="none" xmlns="http://www.w3.org/2000/svg">
<path d="M6.17299 0C2.75306 0 0 2.75306 0 6.17299V25.827C0 29.2469 2.75306 32 6.17299 32H25.827C29.2469 32 32 29.2469 32 25.827V6.17299C32 2.75306 29.2469 0 25.827 0H6.17299ZM13.918 4.52499H17.09V10.163H22.384V13.665H17.09V19.385C17.09 20.6779 17.1587 21.5085 17.296 21.876C17.4325 22.2429 17.6879 22.5357 18.06 22.755C18.5535 23.0508 19.1172 23.199 19.753 23.199C20.8819 23.199 22.0055 22.8314 23.123 22.097V25.615C22.1695 26.0639 21.3071 26.3804 20.535 26.5611C19.762 26.7417 18.9262 26.8321 18.028 26.8321C17.0087 26.8321 16.1066 26.7022 15.323 26.4451C14.5394 26.1872 13.8716 25.8198 13.318 25.3441C12.7644 24.8669 12.3805 24.3602 12.167 23.8231C11.9532 23.2866 11.847 22.5082 11.847 21.4891V13.6651H9.38099V10.5081C10.2571 10.2233 11.0088 9.8161 11.633 9.28407C12.2581 8.75283 12.7591 8.11443 13.137 7.36906C13.5154 6.62435 13.7758 5.67558 13.918 4.52506V4.52499Z" fill="#484848"/>
</svg>
