<svg width="72" height="31" viewBox="0 0 72 31" fill="none" xmlns="http://www.w3.org/2000/svg">
<path d="M16.4141 15.6035V12.3516C16.4141 10.9453 16.4551 9.66797 16.5371 8.51953C16.6309 7.35938 16.8301 6.28711 17.1348 5.30273C16.209 5.16211 15.2598 4.99805 14.2871 4.81055C13.3145 4.61133 12.3594 4.42383 11.4219 4.24805C10.4961 4.07227 9.61133 3.92578 8.76758 3.80859C7.93555 3.67969 7.18555 3.61523 6.51758 3.61523C5.61523 3.61523 4.86523 3.69141 4.26758 3.84375C3.66992 3.98438 3.18945 4.17773 2.82617 4.42383C2.46289 4.66992 2.20508 4.95703 2.05273 5.28516C1.91211 5.60156 1.8418 5.94141 1.8418 6.30469C1.8418 6.66797 1.92383 7.00195 2.08789 7.30664C2.26367 7.61133 2.50977 7.88086 2.82617 8.11523C3.14258 8.33789 3.51758 8.51367 3.95117 8.64258C4.39648 8.77148 4.88867 8.83594 5.42773 8.83594C6.02539 8.83594 6.55273 8.77148 7.00977 8.64258C7.47852 8.50195 7.87695 8.34961 8.20508 8.18555C8.5918 7.99805 8.93164 7.78125 9.22461 7.53516L9.57617 8.29102C9.21289 8.56055 8.81445 8.80078 8.38086 9.01172C8.00586 9.19922 7.56641 9.36914 7.0625 9.52148C6.57031 9.66211 6.02539 9.73242 5.42773 9.73242C4.64258 9.73242 3.94531 9.62695 3.33594 9.41602C2.73828 9.20508 2.23438 8.92383 1.82422 8.57227C1.41406 8.20898 1.10352 7.78711 0.892578 7.30664C0.681641 6.82617 0.576172 6.31641 0.576172 5.77734C0.576172 5.20312 0.675781 4.64648 0.875 4.10742C1.0625 3.56836 1.38477 3.08789 1.8418 2.66602C2.28711 2.24414 2.87891 1.91016 3.61719 1.66406C4.35547 1.40625 5.26367 1.27734 6.3418 1.27734C7.33789 1.27734 8.33398 1.35938 9.33008 1.52344C10.3379 1.67578 11.3281 1.86914 12.3008 2.10352C13.2852 2.32617 14.2402 2.57227 15.166 2.8418C16.1035 3.09961 17 3.33398 17.8555 3.54492C18.3594 2.61914 18.9863 1.88086 19.7363 1.33008C20.4863 0.767578 21.3008 0.486328 22.1797 0.486328C22.5547 0.486328 22.8887 0.550781 23.1816 0.679688C23.4746 0.796875 23.7207 0.955078 23.9199 1.1543C24.1191 1.35352 24.2656 1.58789 24.3594 1.85742C24.4648 2.11523 24.5176 2.39062 24.5176 2.68359C24.5176 3.17578 24.4004 3.60352 24.166 3.9668C23.9434 4.31836 23.6328 4.61719 23.2344 4.86328C22.8359 5.09766 22.3672 5.27344 21.8281 5.39062C21.2891 5.49609 20.709 5.54883 20.0879 5.54883C19.9473 5.54883 19.8008 5.54883 19.6484 5.54883C19.5078 5.54883 19.3672 5.53711 19.2266 5.51367C19.1328 6.09961 19.0566 6.75586 18.998 7.48242C18.9512 8.19727 18.9277 9.00586 18.9277 9.9082V15.6035H21.2832L20.9141 16.6758H18.9277V21C18.9277 21.9844 18.916 22.8457 18.8926 23.584C18.8691 24.3105 18.8047 24.9609 18.6992 25.5352C18.5938 26.0977 18.4355 26.6074 18.2246 27.0645C18.0137 27.5098 17.7207 27.9492 17.3457 28.3828C16.7012 29.1211 15.8047 29.7246 14.6562 30.1934C13.5078 30.6621 12.1133 30.8965 10.4727 30.8965C9.46484 30.8965 8.50391 30.7559 7.58984 30.4746C6.67578 30.1934 5.87305 29.8008 5.18164 29.2969C4.49023 28.793 3.93945 28.1895 3.5293 27.4863C3.11914 26.7832 2.91406 26.0039 2.91406 25.1484C2.91406 24.5156 3.01367 23.9473 3.21289 23.4434C3.42383 22.9395 3.69336 22.4941 4.02148 22.1074C4.34961 21.709 4.70703 21.3691 5.09375 21.0879C5.49219 20.8066 5.87891 20.5723 6.25391 20.3848C6.62891 20.1973 6.96875 20.0508 7.27344 19.9453C7.57812 19.8398 7.80664 19.7695 7.95898 19.7344L8.31055 20.4551C8.04102 20.5957 7.73633 20.7891 7.39648 21.0352C7.06836 21.2695 6.75781 21.5742 6.46484 21.9492C6.17188 22.3125 5.92578 22.7578 5.72656 23.2852C5.52734 23.8125 5.42773 24.4336 5.42773 25.1484C5.42773 25.9102 5.55664 26.5957 5.81445 27.2051C6.07227 27.8027 6.42969 28.3125 6.88672 28.7344C7.35547 29.1445 7.90625 29.4609 8.53906 29.6836C9.18359 29.8945 9.88672 30 10.6484 30C11.5039 30 12.2832 29.8828 12.9863 29.6484C13.7012 29.4141 14.3105 29.0215 14.8145 28.4707C15.3184 27.9199 15.7109 27.1875 15.9922 26.2734C16.2734 25.3594 16.4141 24.2227 16.4141 22.8633V16.6758H13.0039L13.3555 15.6035H16.4141ZM22.1797 1.45312C21.6523 1.45312 21.166 1.64648 20.7207 2.0332C20.2754 2.4082 19.9062 3.05273 19.6133 3.9668C19.9766 4.02539 20.3281 4.07227 20.668 4.10742C21.0078 4.14258 21.3301 4.16016 21.6348 4.16016C21.9512 4.16016 22.2207 4.11914 22.4434 4.03711C22.6777 3.94336 22.8652 3.82617 23.0059 3.68555C23.1465 3.54492 23.252 3.38672 23.3223 3.21094C23.3926 3.03516 23.4277 2.85938 23.4277 2.68359C23.4277 2.34375 23.3105 2.05664 23.0762 1.82227C22.8418 1.57617 22.543 1.45312 22.1797 1.45312ZM30.125 26.1855C30.0664 26.2793 29.9785 26.4434 29.8613 26.6777C29.7559 26.9004 29.6152 27.1523 29.4395 27.4336C29.2754 27.7148 29.0762 28.0078 28.8418 28.3125C28.6191 28.6172 28.3613 28.8926 28.0684 29.1387C27.7754 29.3848 27.4473 29.5898 27.084 29.7539C26.7324 29.918 26.3398 30 25.9062 30C25.5664 30 25.2148 29.9297 24.8516 29.7891C24.4883 29.6484 24.1484 29.3906 23.832 29.0156C23.5273 28.6406 23.2754 28.1309 23.0762 27.4863C22.877 26.8301 22.7773 25.9863 22.7773 24.9551C22.7773 23.9707 22.8125 22.9863 22.8828 22.002C22.9531 21.0059 23.0352 20.0977 23.1289 19.2773C23.2344 18.457 23.334 17.7715 23.4277 17.2207C23.5215 16.6699 23.5918 16.3359 23.6387 16.2188C23.6855 16.1133 23.7793 16.0195 23.9199 15.9375C24.0605 15.8555 24.2188 15.791 24.3945 15.7441C24.582 15.6973 24.7695 15.6621 24.957 15.6387C25.1562 15.6152 25.3262 15.6035 25.4668 15.6035C25.6543 15.6035 25.8008 15.6504 25.9062 15.7441C26.0234 15.8379 26.082 15.9961 26.082 16.2188C26.082 16.3242 26.0586 16.5352 26.0117 16.8516C25.9766 17.1562 25.9297 17.5312 25.8711 17.9766C25.8125 18.4219 25.748 18.9141 25.6777 19.4531C25.6191 19.9922 25.5605 20.543 25.502 21.1055C25.4434 21.6562 25.3906 22.207 25.3438 22.7578C25.3086 23.2969 25.291 23.7891 25.291 24.2344C25.291 25.5117 25.4258 26.4609 25.6953 27.082C25.9766 27.7031 26.4336 28.0137 27.0664 28.0137C27.6055 28.0137 28.1504 27.6211 28.7012 26.8359C29.2637 26.0508 29.75 24.9082 30.1602 23.4082C30.2188 22.7754 30.2715 22.1016 30.3184 21.3867C30.377 20.6602 30.4297 19.9746 30.4766 19.3301C30.5234 18.6738 30.5645 18.0879 30.5996 17.5723C30.6465 17.0566 30.6875 16.6875 30.7227 16.4648C30.7578 16.3008 30.8516 16.166 31.0039 16.0605C31.1562 15.9434 31.3262 15.8555 31.5137 15.7969C31.7129 15.7266 31.9004 15.6797 32.0762 15.6562C32.2637 15.6211 32.4043 15.6035 32.498 15.6035C32.6973 15.6035 32.832 15.6504 32.9023 15.7441C32.9844 15.8262 33.0254 15.9609 33.0254 16.1484C33.0254 16.3125 33.0078 16.6289 32.9727 17.0977C32.9492 17.5547 32.9141 18.0938 32.8672 18.7148C32.832 19.3242 32.791 19.9805 32.7441 20.6836C32.6973 21.3867 32.6504 22.0664 32.6035 22.7227C32.5684 23.3672 32.5332 23.9531 32.498 24.4805C32.4746 25.0078 32.4629 25.4062 32.4629 25.6758C32.4629 26.4727 32.5039 27.0996 32.5859 27.5566C32.6797 28.0137 32.8789 28.2422 33.1836 28.2422C33.4062 28.2422 33.6465 28.1016 33.9043 27.8203C34.1738 27.5273 34.4609 27.123 34.7656 26.6074C35.082 26.0918 35.4219 25.4824 35.7852 24.7793C36.1484 24.0645 36.541 23.2852 36.9629 22.4414L37.1387 22.0723L37.8594 22.6172L37.6836 22.9863C37.1211 24.0996 36.623 25.0957 36.1895 25.9746C35.7676 26.8418 35.3633 27.5742 34.9766 28.1719C34.5898 28.7695 34.1973 29.2266 33.7988 29.543C33.4004 29.8477 32.9551 30 32.4629 30C32.0059 30 31.625 29.9121 31.3203 29.7363C31.0273 29.5605 30.793 29.3086 30.6172 28.9805C30.4414 28.6523 30.3125 28.2539 30.2305 27.7852C30.1602 27.3164 30.125 26.7832 30.125 26.1855ZM37.0859 24.2344C37.0859 22.9922 37.1328 21.7441 37.2266 20.4902C37.3203 19.2363 37.4434 17.9648 37.5957 16.6758H35.9961L36.1895 15.6035H37.7363C37.9004 14.4082 38.0645 13.2129 38.2285 12.0176C38.4043 10.8105 38.5625 9.60352 38.7031 8.39648H40.4961C40.4727 8.6543 40.4375 9.0293 40.3906 9.52148C40.3555 10.002 40.3086 10.5645 40.25 11.209C40.2031 11.8418 40.1562 12.5391 40.1094 13.3008C40.0625 14.0508 40.0156 14.8184 39.9688 15.6035H43.3789L43.2031 16.6758H39.8984C39.8516 17.3438 39.8105 18 39.7754 18.6445C39.7402 19.2891 39.7051 19.9043 39.6699 20.4902C39.6465 21.0645 39.6289 21.5977 39.6172 22.0898C39.6055 22.5703 39.5996 22.9863 39.5996 23.3379C39.5996 24.2285 39.623 24.9727 39.6699 25.5703C39.7285 26.168 39.8105 26.6484 39.916 27.0117C40.0332 27.375 40.1738 27.6328 40.3379 27.7852C40.5137 27.9375 40.7129 28.0137 40.9355 28.0137C41.2285 28.0137 41.5508 27.8672 41.9023 27.5742C42.2656 27.2695 42.6406 26.8652 43.0273 26.3613C43.4141 25.8574 43.8066 25.2715 44.2051 24.6035C44.6035 23.9238 44.9902 23.2031 45.3652 22.4414L45.541 22.0723L46.2617 22.6172L46.0859 22.9863C45.5469 24.0762 45.0078 25.0547 44.4688 25.9219C43.9414 26.7891 43.4199 27.5273 42.9043 28.1367C42.3887 28.7344 41.8848 29.1973 41.3926 29.5254C40.9004 29.8418 40.4258 30 39.9688 30C39.5117 30 39.1016 29.8945 38.7383 29.6836C38.3867 29.4727 38.0879 29.1387 37.8418 28.6816C37.5957 28.2129 37.4082 27.6152 37.2793 26.8887C37.1504 26.1621 37.0859 25.2773 37.0859 24.2344ZM52.7656 26.1855C52.707 26.2793 52.6191 26.4434 52.502 26.6777C52.3965 26.9004 52.2559 27.1523 52.0801 27.4336C51.916 27.7148 51.7168 28.0078 51.4824 28.3125C51.2598 28.6172 51.002 28.8926 50.709 29.1387C50.416 29.3848 50.0879 29.5898 49.7246 29.7539C49.373 29.918 48.9805 30 48.5469 30C48.207 30 47.8555 29.9297 47.4922 29.7891C47.1289 29.6484 46.7891 29.3906 46.4727 29.0156C46.168 28.6406 45.916 28.1309 45.7168 27.4863C45.5176 26.8301 45.418 25.9863 45.418 24.9551C45.418 23.9707 45.4531 22.9863 45.5234 22.002C45.5938 21.0059 45.6758 20.0977 45.7695 19.2773C45.875 18.457 45.9746 17.7715 46.0684 17.2207C46.1621 16.6699 46.2324 16.3359 46.2793 16.2188C46.3262 16.1133 46.4199 16.0195 46.5605 15.9375C46.7012 15.8555 46.8594 15.791 47.0352 15.7441C47.2227 15.6973 47.4102 15.6621 47.5977 15.6387C47.7969 15.6152 47.9668 15.6035 48.1074 15.6035C48.2949 15.6035 48.4414 15.6504 48.5469 15.7441C48.6641 15.8379 48.7227 15.9961 48.7227 16.2188C48.7227 16.3242 48.6992 16.5352 48.6523 16.8516C48.6172 17.1562 48.5703 17.5312 48.5117 17.9766C48.4531 18.4219 48.3887 18.9141 48.3184 19.4531C48.2598 19.9922 48.2012 20.543 48.1426 21.1055C48.084 21.6562 48.0312 22.207 47.9844 22.7578C47.9492 23.2969 47.9316 23.7891 47.9316 24.2344C47.9316 25.5117 48.0664 26.4609 48.3359 27.082C48.6172 27.7031 49.0742 28.0137 49.707 28.0137C50.2461 28.0137 50.791 27.6211 51.3418 26.8359C51.9043 26.0508 52.3906 24.9082 52.8008 23.4082C52.8594 22.7754 52.9121 22.1016 52.959 21.3867C53.0176 20.6602 53.0703 19.9746 53.1172 19.3301C53.1641 18.6738 53.2051 18.0879 53.2402 17.5723C53.2871 17.0566 53.3281 16.6875 53.3633 16.4648C53.3984 16.3008 53.4922 16.166 53.6445 16.0605C53.7969 15.9434 53.9668 15.8555 54.1543 15.7969C54.3535 15.7266 54.541 15.6797 54.7168 15.6562C54.9043 15.6211 55.0449 15.6035 55.1387 15.6035C55.3379 15.6035 55.4727 15.6504 55.543 15.7441C55.625 15.8262 55.666 15.9609 55.666 16.1484C55.666 16.3125 55.6484 16.6289 55.6133 17.0977C55.5898 17.5547 55.5547 18.0938 55.5078 18.7148C55.4727 19.3242 55.4316 19.9805 55.3848 20.6836C55.3379 21.3867 55.291 22.0664 55.2441 22.7227C55.209 23.3672 55.1738 23.9531 55.1387 24.4805C55.1152 25.0078 55.1035 25.4062 55.1035 25.6758C55.1035 26.4727 55.1445 27.0996 55.2266 27.5566C55.3203 28.0137 55.5195 28.2422 55.8242 28.2422C56.0469 28.2422 56.2871 28.1016 56.5449 27.8203C56.8145 27.5273 57.1016 27.123 57.4062 26.6074C57.7227 26.0918 58.0625 25.4824 58.4258 24.7793C58.7891 24.0645 59.1816 23.2852 59.6035 22.4414L59.7793 22.0723L60.5 22.6172L60.3242 22.9863C59.7617 24.0996 59.2637 25.0957 58.8301 25.9746C58.4082 26.8418 58.0039 27.5742 57.6172 28.1719C57.2305 28.7695 56.8379 29.2266 56.4395 29.543C56.041 29.8477 55.5957 30 55.1035 30C54.6465 30 54.2656 29.9121 53.9609 29.7363C53.668 29.5605 53.4336 29.3086 53.2578 28.9805C53.082 28.6523 52.9531 28.2539 52.8711 27.7852C52.8008 27.3164 52.7656 26.7832 52.7656 26.1855ZM59.6211 22.4414L59.7969 22.0723C59.9727 21.7207 60.1309 21.3574 60.2715 20.9824C60.4238 20.6074 60.5527 20.2559 60.6582 19.9277C60.7637 19.5879 60.8457 19.2891 60.9043 19.0312C60.9629 18.7617 61.0039 18.5566 61.0273 18.416C60.7227 18.3809 60.4297 18.3047 60.1484 18.1875C59.8672 18.0703 59.6211 17.9121 59.4102 17.7129C59.1992 17.5137 59.0352 17.2793 58.918 17.0098C58.7891 16.7402 58.7246 16.4355 58.7246 16.0957C58.7246 15.8262 58.7715 15.5859 58.8652 15.375C58.959 15.1641 59.0879 14.9883 59.252 14.8477C59.4043 14.707 59.5801 14.6016 59.7793 14.5312C59.9668 14.4492 60.166 14.4082 60.377 14.4082C60.6582 14.4082 60.9043 14.4668 61.1152 14.584C61.3262 14.7012 61.502 14.8594 61.6426 15.0586C61.7832 15.2461 61.8887 15.4688 61.959 15.7266C62.0293 15.9727 62.0645 16.2305 62.0645 16.5C62.3926 16.5 62.7441 16.4531 63.1191 16.3594C63.5059 16.2656 63.8926 16.166 64.2793 16.0605C64.666 15.9434 65.0469 15.8379 65.4219 15.7441C65.7969 15.6504 66.1426 15.6035 66.459 15.6035C66.7285 15.6035 66.9453 15.6621 67.1094 15.7793C67.2734 15.8848 67.3555 16.0664 67.3555 16.3242C67.3555 16.5117 67.2969 16.8223 67.1797 17.2559C67.0742 17.6895 66.9395 18.1934 66.7754 18.7676C66.6113 19.3418 66.4297 19.9688 66.2305 20.6484C66.043 21.3164 65.8672 21.9961 65.7031 22.6875C65.5391 23.3672 65.3984 24.0293 65.2812 24.6738C65.1758 25.3184 65.123 25.8926 65.123 26.3965C65.123 27.0293 65.1934 27.457 65.334 27.6797C65.4746 27.9023 65.7266 28.0137 66.0898 28.0137C66.2422 28.0137 66.4297 27.9492 66.6523 27.8203C66.8867 27.6797 67.168 27.416 67.4961 27.0293C67.8242 26.6309 68.2109 26.0684 68.6562 25.3418C69.1133 24.6035 69.6406 23.6367 70.2383 22.4414L70.4141 22.0723L71.1348 22.6172L70.959 22.9863C70.2559 24.3926 69.6289 25.5469 69.0781 26.4492C68.5273 27.3516 68.0176 28.0664 67.5488 28.5938C67.0918 29.1211 66.6582 29.4902 66.248 29.7012C65.8379 29.9004 65.4277 30 65.0176 30C64.3262 30 63.7637 29.7363 63.3301 29.209C62.8965 28.6816 62.6797 27.8672 62.6797 26.7656C62.6797 26.168 62.7617 25.5469 62.9258 24.9023C63.0898 24.2578 63.2949 23.6191 63.541 22.9863C63.7871 22.3418 64.0625 21.709 64.3672 21.0879C64.6719 20.4668 64.959 19.8809 65.2285 19.3301C65.5098 18.7676 65.7617 18.2461 65.9844 17.7656C66.207 17.2852 66.3652 16.8633 66.459 16.5L66.3535 16.3945C66.166 16.3945 65.9141 16.4941 65.5977 16.6934C65.2812 16.8926 64.9238 17.1211 64.5254 17.3789C64.1387 17.625 63.7227 17.8594 63.2773 18.082C62.832 18.3047 62.3809 18.4395 61.9238 18.4863C61.9004 18.6504 61.8477 18.8906 61.7656 19.207C61.6953 19.5234 61.5957 19.875 61.4668 20.2617C61.3379 20.6484 61.1914 21.0469 61.0273 21.457C60.8633 21.8672 60.6934 22.2539 60.5176 22.6172L60.3418 22.9863L59.6211 22.4414ZM60.4824 15.3926C60.377 15.3926 60.2891 15.4277 60.2188 15.498C60.1484 15.5684 60.1133 15.6504 60.1133 15.7441C60.1133 15.8848 60.1484 16.0078 60.2188 16.1133C60.2891 16.207 60.377 16.2891 60.4824 16.3594C60.5879 16.418 60.6934 16.4648 60.7988 16.5C60.916 16.5234 61.0156 16.5352 61.0977 16.5352C61.0977 16.207 61.0449 15.9375 60.9395 15.7266C60.834 15.5039 60.6816 15.3926 60.4824 15.3926Z" fill="white"/>
</svg>
